<svg width="124" height="124" viewBox="0 0 124 124" fill="none" xmlns="http://www.w3.org/2000/svg">
<path fill-rule="evenodd" clip-rule="evenodd" d="M122.428 72.7793C124.362 74.6851 122.992 77.9437 120.257 77.9437H95.9683C95.154 77.9437 94.373 78.2624 93.7971 78.8297L63.9058 108.281C62.7067 109.462 60.7626 109.462 59.5635 108.281L29.6721 78.8297C29.0963 78.2624 28.3153 77.9437 27.5009 77.9437H3.07662C0.341128 77.9437 -1.02881 74.6851 0.905473 72.7793L59.4955 15.0527C60.6946 13.8713 62.6387 13.8713 63.8378 15.0527L122.428 72.7793ZM47.3264 59.5387C46.1273 60.7201 46.1273 62.6355 47.3264 63.817L59.5182 75.8291C60.7173 77.0105 62.6614 77.0105 63.8605 75.8291L76.0523 63.817C77.2514 62.6355 77.2514 60.7201 76.0523 59.5387L63.8605 47.5265C62.6614 46.3451 60.7173 46.3451 59.5182 47.5265L47.3264 59.5387Z" fill="white"/>
<path fill-rule="evenodd" clip-rule="evenodd" d="M122.428 72.7793C124.362 74.6851 122.992 77.9437 120.257 77.9437H95.9683C95.154 77.9437 94.373 78.2624 93.7971 78.8297L63.9058 108.281C62.7067 109.462 60.7626 109.462 59.5635 108.281L29.6721 78.8297C29.0963 78.2624 28.3153 77.9437 27.5009 77.9437H3.07662C0.341128 77.9437 -1.02881 74.6851 0.905473 72.7793L59.4955 15.0527C60.6946 13.8713 62.6387 13.8713 63.8378 15.0527L122.428 72.7793ZM47.3264 59.5387C46.1273 60.7201 46.1273 62.6355 47.3264 63.817L59.5182 75.8291C60.7173 77.0105 62.6614 77.0105 63.8605 75.8291L76.0523 63.817C77.2514 62.6355 77.2514 60.7201 76.0523 59.5387L63.8605 47.5265C62.6614 46.3451 60.7173 46.3451 59.5182 47.5265L47.3264 59.5387Z" fill="url(#paint0_radial_2580_1568)"/>
<defs>
<radialGradient id="paint0_radial_2580_1568" cx="0" cy="0" r="1" gradientTransform="matrix(-49.0812 44.8206 -58.2237 -61.8894 74.2521 60.3843)" gradientUnits="userSpaceOnUse">
<stop offset="0.125" stop-color="white"/>
<stop offset="1" stop-color="#886EFE"/>
</radialGradient>
</defs>
</svg>
