<svg width="205" height="32" viewBox="0 0 205 32" fill="none" xmlns="http://www.w3.org/2000/svg">
<path fill-rule="evenodd" clip-rule="evenodd" d="M31.7651 18.8925C32.2669 19.3885 31.9115 20.2367 31.2017 20.2367H24.8999C24.6886 20.2367 24.486 20.3196 24.3366 20.4673L16.581 28.133C16.2698 28.4405 15.7654 28.4405 15.4543 28.133L7.6987 20.4673C7.5493 20.3196 7.34666 20.2367 7.13538 20.2367H0.798258C0.088509 20.2367 -0.266935 19.3885 0.234934 18.8925L15.4367 3.86698C15.7478 3.55948 16.2522 3.55948 16.5633 3.86698L31.7651 18.8925ZM12.2793 15.4461C11.9682 15.7536 11.9682 16.2522 12.2793 16.5597L15.4426 19.6863C15.7537 19.9938 16.2581 19.9938 16.5692 19.6863L19.7325 16.5597C20.0436 16.2522 20.0436 15.7536 19.7325 15.4461L16.5692 12.3195C16.2581 12.012 15.7537 12.012 15.4426 12.3195L12.2793 15.4461Z" fill="white"/>
<path fill-rule="evenodd" clip-rule="evenodd" d="M31.7651 18.8925C32.2669 19.3885 31.9115 20.2367 31.2017 20.2367H24.8999C24.6886 20.2367 24.486 20.3196 24.3366 20.4673L16.581 28.133C16.2698 28.4405 15.7654 28.4405 15.4543 28.133L7.6987 20.4673C7.5493 20.3196 7.34666 20.2367 7.13538 20.2367H0.798258C0.088509 20.2367 -0.266935 19.3885 0.234934 18.8925L15.4367 3.86698C15.7478 3.55948 16.2522 3.55948 16.5633 3.86698L31.7651 18.8925ZM12.2793 15.4461C11.9682 15.7536 11.9682 16.2522 12.2793 16.5597L15.4426 19.6863C15.7537 19.9938 16.2581 19.9938 16.5692 19.6863L19.7325 16.5597C20.0436 16.2522 20.0436 15.7536 19.7325 15.4461L16.5692 12.3195C16.2581 12.012 15.7537 12.012 15.4426 12.3195L12.2793 15.4461Z" fill="url(#paint0_radial_6017_5594)"/>
<path d="M42 7H44.5569V22.6901C44.5569 22.9806 44.6053 23.184 44.7022 23.3002C44.799 23.3971 44.9927 23.4455 45.2833 23.4455H46.3002V25.6828H45.2833C44.0823 25.6828 43.23 25.4697 42.7264 25.0436C42.2421 24.6174 42 23.8329 42 22.6901V7Z" fill="white"/>
<path d="M47.4046 20.8305C47.637 20.385 47.9276 20.0073 48.2763 19.6973C48.6443 19.3874 49.1092 19.1065 49.6709 18.8547C50.2327 18.6029 50.7557 18.4092 51.2399 18.2736C51.7242 18.1186 52.2859 17.9831 52.9252 17.8668C53.5838 17.7312 54.0971 17.6441 54.4651 17.6053C54.8525 17.5666 55.3077 17.5182 55.8307 17.46C56.3731 17.4019 56.6734 17.3729 56.7315 17.3729C56.7315 15.3584 55.7339 14.3511 53.7387 14.3511C53.1382 14.3511 52.6152 14.4189 52.1697 14.5545C51.7242 14.6901 51.3949 14.8547 51.1818 15.0484C50.9881 15.2421 50.8332 15.4358 50.7169 15.6295C50.6007 15.8232 50.5329 15.9879 50.5135 16.1235V16.3269H47.6951C47.6951 16.2107 47.7048 16.0654 47.7242 15.891C47.7629 15.7167 47.8888 15.3971 48.1019 14.9322C48.315 14.4673 48.6152 14.0605 49.0026 13.7119C49.3901 13.3632 50.0002 13.0436 50.8332 12.753C51.6661 12.4625 52.6443 12.3172 53.7678 12.3172C55.6467 12.3172 57.0317 12.7627 57.9227 13.6538C58.8332 14.5448 59.2884 15.7458 59.2884 17.2567V22.6901C59.2884 22.9806 59.3368 23.184 59.4336 23.3002C59.5305 23.3971 59.7242 23.4455 60.0148 23.4455H60.9445V25.6828H59.9566C58.9687 25.6828 58.2327 25.5472 57.7484 25.276C57.2641 24.9855 56.9542 24.4818 56.8186 23.7651C55.6951 25.2373 54.0002 25.9734 51.7339 25.9734C50.223 25.9734 49.0608 25.6344 48.2472 24.9564C47.4336 24.2785 47.0269 23.3971 47.0269 22.3123C47.0269 21.7893 47.1528 21.2954 47.4046 20.8305ZM50.3683 23.5036C50.7944 23.7748 51.3368 23.9104 51.9954 23.9104C53.1189 23.9104 54.1842 23.6005 55.1915 22.9806C56.2181 22.3414 56.7315 21.5569 56.7315 20.6271V19.3487C53.8646 19.6005 51.9276 20.0169 50.9203 20.5981C50.1261 21.063 49.729 21.6344 49.729 22.3123C49.729 22.8354 49.9421 23.2324 50.3683 23.5036Z" fill="white"/>
<path d="M61.6296 19.9298V12.6077H64.1865V19.9298C64.1865 22.5061 65.2519 23.7942 67.3826 23.7942C69.9008 23.7942 71.1599 22.3123 71.1599 19.3487V12.6077H73.7168V25.6828H71.247V23.5327C70.8984 24.23 70.3754 24.8111 69.678 25.276C69.0001 25.7409 68.2059 25.9734 67.2955 25.9734C63.5182 25.9734 61.6296 23.9588 61.6296 19.9298Z" fill="white"/>
<path d="M77.936 12.6077V14.7288C78.2847 13.9927 78.8173 13.4116 79.534 12.9855C80.2508 12.5593 81.0643 12.3366 81.9747 12.3172C82.0522 12.3172 82.1297 12.3172 82.2072 12.3172C84.1055 12.3172 85.5195 12.8208 86.4493 13.8281C87.3791 14.816 87.844 16.3462 87.844 18.4189V25.6828H85.2871V18.4189C85.2871 17.0048 85.0256 16.0073 84.5026 15.4261C83.9989 14.8257 83.1757 14.5157 82.0328 14.4964C81.9941 14.4964 81.9554 14.4964 81.9166 14.4964C80.6575 14.4964 79.689 14.8547 79.011 15.5714C78.3524 16.2688 78.0232 17.4891 78.0232 19.2324V25.6828H75.4662V12.6077H77.936Z" fill="white"/>
<path d="M90.7489 14.1768C91.9886 12.937 93.6641 12.3172 95.7755 12.3172C96.8602 12.3172 97.8094 12.4625 98.623 12.753C99.4559 13.0436 100.076 13.4019 100.483 13.8281C100.889 14.2349 101.219 14.6513 101.47 15.0775C101.722 15.4843 101.877 15.8329 101.935 16.1235L101.993 16.5593H99.175C99.1556 16.5012 99.1266 16.4237 99.0878 16.3269C99.0685 16.23 98.9716 16.0557 98.7973 15.8039C98.6423 15.5327 98.4486 15.3002 98.2162 15.1065C98.0031 14.9128 97.6738 14.7385 97.2283 14.5835C96.8021 14.4286 96.3179 14.3511 95.7755 14.3511C94.4389 14.3511 93.3929 14.8063 92.6375 15.7167C91.9014 16.6077 91.5334 17.7312 91.5334 19.0872C91.5334 20.4431 91.9111 21.5956 92.6665 22.5448C93.422 23.4746 94.4583 23.9395 95.7755 23.9395C96.6472 23.9395 97.3639 23.7167 97.9256 23.2712C98.4874 22.8063 98.836 22.3511 98.9716 21.9056L99.175 21.2082H101.993C101.974 21.3438 101.945 21.5182 101.906 21.7312C101.868 21.9443 101.713 22.322 101.441 22.8644C101.19 23.4068 100.86 23.891 100.453 24.3172C100.047 24.7433 99.4268 25.1308 98.5939 25.4794C97.7803 25.8087 96.8409 25.9734 95.7755 25.9734C93.6254 25.9734 91.9305 25.3632 90.6907 24.1429C89.4704 22.9031 88.8602 21.2179 88.8602 19.0872C88.8602 17.0726 89.4898 15.4358 90.7489 14.1768Z" fill="white"/>
<path d="M103.161 7H105.718V14.5545C106.086 13.8765 106.619 13.3438 107.316 12.9564C108.013 12.5496 108.798 12.3366 109.67 12.3172C109.747 12.3172 109.825 12.3172 109.902 12.3172C111.8 12.3172 113.214 12.8208 114.144 13.8281C115.074 14.816 115.539 16.3462 115.539 18.4189V25.6828H112.982V18.4189C112.982 17.0048 112.72 16.0073 112.197 15.4261C111.694 14.8257 110.871 14.5157 109.728 14.4964C109.689 14.4964 109.65 14.4964 109.611 14.4964C108.352 14.4964 107.384 14.8547 106.706 15.5714C106.047 16.2688 105.718 17.4891 105.718 19.2324V25.6828H103.161V7Z" fill="white"/>
<path d="M117.136 12.6077H119.606V14.3511C120.807 12.9952 122.308 12.3172 124.11 12.3172C126.298 12.3172 127.984 12.9564 129.165 14.2349C130.347 15.4939 130.938 17.1598 130.938 19.2324C130.938 21.3051 130.327 22.9516 129.107 24.1719C127.906 25.3729 126.279 25.9734 124.226 25.9734C124.11 25.9734 123.984 25.9734 123.848 25.9734C122.221 25.9153 120.836 25.2567 119.693 23.9976V31H117.136V12.6077ZM119.606 19.1453C119.606 20.5012 119.984 21.6344 120.739 22.5448C121.475 23.4746 122.502 23.9395 123.819 23.9395C125.136 23.9395 126.211 23.4843 127.044 22.5738C127.877 21.6634 128.294 20.5496 128.294 19.2324C128.294 17.7797 127.887 16.6077 127.073 15.7167C126.279 14.8063 125.194 14.3511 123.819 14.3511C122.482 14.3511 121.446 14.7966 120.71 15.6877C119.974 16.5593 119.606 17.7119 119.606 19.1453Z" fill="white"/>
<path d="M132.05 20.8305C132.282 20.385 132.573 20.0073 132.921 19.6973C133.289 19.3874 133.754 19.1065 134.316 18.8547C134.878 18.6029 135.401 18.4092 135.885 18.2736C136.369 18.1186 136.931 17.9831 137.57 17.8668C138.229 17.7312 138.742 17.6441 139.11 17.6053C139.498 17.5666 139.953 17.5182 140.476 17.46C141.018 17.4019 141.318 17.3729 141.377 17.3729C141.377 15.3584 140.379 14.3511 138.384 14.3511C137.783 14.3511 137.26 14.4189 136.815 14.5545C136.369 14.6901 136.04 14.8547 135.827 15.0484C135.633 15.2421 135.478 15.4358 135.362 15.6295C135.246 15.8232 135.178 15.9879 135.159 16.1235V16.3269H132.34C132.34 16.2107 132.35 16.0654 132.369 15.891C132.408 15.7167 132.534 15.3971 132.747 14.9322C132.96 14.4673 133.26 14.0605 133.648 13.7119C134.035 13.3632 134.645 13.0436 135.478 12.753C136.311 12.4625 137.289 12.3172 138.413 12.3172C140.292 12.3172 141.677 12.7627 142.568 13.6538C143.478 14.5448 143.933 15.7458 143.933 17.2567V22.6901C143.933 22.9806 143.982 23.184 144.079 23.3002C144.176 23.3971 144.369 23.4455 144.66 23.4455H145.59V25.6828H144.602C143.614 25.6828 142.878 25.5472 142.394 25.276C141.909 24.9855 141.599 24.4818 141.464 23.7651C140.34 25.2373 138.645 25.9734 136.379 25.9734C134.868 25.9734 133.706 25.6344 132.892 24.9564C132.079 24.2785 131.672 23.3971 131.672 22.3123C131.672 21.7893 131.798 21.2954 132.05 20.8305ZM135.013 23.5036C135.44 23.7748 135.982 23.9104 136.641 23.9104C137.764 23.9104 138.829 23.6005 139.837 22.9806C140.863 22.3414 141.377 21.5569 141.377 20.6271V19.3487C138.51 19.6005 136.573 20.0169 135.565 20.5981C134.771 21.063 134.374 21.6344 134.374 22.3123C134.374 22.8354 134.587 23.2324 135.013 23.5036Z" fill="white"/>
<path d="M145.64 19.2324C145.64 17.1598 146.231 15.4939 147.413 14.2349C148.594 12.9564 150.28 12.3172 152.468 12.3172C154.192 12.3172 155.664 12.9564 156.885 14.2349V7H159.442V25.6828H156.972V23.9104C155.849 25.2276 154.434 25.9153 152.73 25.9734C152.594 25.9734 152.468 25.9734 152.352 25.9734C150.299 25.9734 148.662 25.3729 147.442 24.1719C146.241 22.9516 145.64 21.3051 145.64 19.2324ZM148.284 19.2324C148.284 20.5496 148.701 21.6634 149.534 22.5738C150.367 23.4843 151.442 23.9395 152.759 23.9395C154.076 23.9395 155.103 23.4843 155.839 22.5738C156.594 21.6441 156.972 20.5012 156.972 19.1453C156.972 17.7119 156.604 16.5593 155.868 15.6877C155.132 14.7966 154.095 14.3511 152.759 14.3511C151.384 14.3511 150.289 14.8063 149.476 15.7167C148.681 16.6077 148.284 17.7797 148.284 19.2324Z" fill="white"/>
<path d="M162.995 25.1642C162.995 24.9549 163.063 24.7826 163.198 24.6472C163.346 24.4995 163.518 24.4257 163.715 24.4257C163.924 24.4257 164.097 24.4995 164.232 24.6472C164.38 24.7826 164.454 24.9549 164.454 25.1642C164.454 25.3611 164.38 25.5334 164.232 25.6811C164.097 25.8165 163.924 25.8842 163.715 25.8842C163.518 25.8842 163.346 25.8165 163.198 25.6811C163.063 25.5334 162.995 25.3611 162.995 25.1642Z" fill="white"/>
<path d="M165.08 17.4837H166.575V15.0466H167.424V17.4837H170.12V18.2222H167.424V24.4441C167.424 24.678 167.461 24.838 167.535 24.9241C167.609 25.0103 167.757 25.0534 167.978 25.0534H170.009V25.7919H167.978C167.461 25.7919 167.098 25.6996 166.889 25.5149C166.68 25.318 166.575 24.9611 166.575 24.4441V18.2222H165.08V17.4837Z" fill="white"/>
<path d="M172.145 17.4837L172.163 19.3669C172.606 18.1114 173.455 17.4837 174.711 17.4837H176.206V18.2222H174.729C173.745 18.2222 173.074 18.6038 172.717 19.3669C172.372 20.1177 172.2 21.2809 172.2 22.8563V25.7919H171.351V17.4837H172.145Z" fill="white"/>
<path d="M177.022 22.4871C177.318 22.1178 177.675 21.8347 178.093 21.6378C178.512 21.4286 179.022 21.2501 179.625 21.1024C180.241 20.9424 180.752 20.8377 181.158 20.7885C181.576 20.7393 182.032 20.6962 182.524 20.6593L183.263 20.6039C183.25 19.6808 183.047 19.0161 182.653 18.6099C182.259 18.1914 181.583 17.9822 180.622 17.9822C180.13 17.9822 179.699 18.0437 179.33 18.1668C178.973 18.2899 178.709 18.4438 178.536 18.6284C178.376 18.8007 178.247 18.9792 178.148 19.1638C178.062 19.3484 178.013 19.5023 178.001 19.6254L177.982 19.81H177.096C177.096 19.7361 177.102 19.6438 177.115 19.5331C177.127 19.4223 177.195 19.2253 177.318 18.9422C177.441 18.6468 177.613 18.3884 177.835 18.1668C178.056 17.9453 178.407 17.7483 178.887 17.576C179.379 17.3914 179.964 17.2991 180.641 17.2991C181.823 17.2991 182.696 17.5637 183.263 18.093C183.829 18.6222 184.112 19.4838 184.112 20.6777V24.4441C184.112 24.678 184.149 24.838 184.223 24.9241C184.297 25.0103 184.45 25.0534 184.684 25.0534H185.275V25.7919H184.684C184.155 25.7919 183.786 25.6996 183.576 25.5149C183.367 25.318 183.263 24.9611 183.263 24.4441V23.9456C182.918 24.5734 182.407 25.0718 181.73 25.4411C181.066 25.798 180.333 25.9765 179.533 25.9765C178.61 25.9765 177.89 25.7796 177.373 25.3857C176.856 24.9795 176.591 24.438 176.579 23.761C176.579 23.7487 176.579 23.7302 176.579 23.7056C176.579 23.2502 176.727 22.844 177.022 22.4871ZM177.484 23.761C177.521 24.278 177.736 24.6657 178.13 24.9241C178.524 25.1703 178.998 25.2934 179.552 25.2934C179.576 25.2934 179.601 25.2934 179.625 25.2934C180.536 25.2811 181.367 24.998 182.118 24.4441C182.881 23.8779 183.263 23.1456 183.263 22.2471V21.287C182.77 21.2993 182.278 21.3362 181.786 21.3978C181.293 21.447 180.672 21.5516 179.921 21.7116C179.17 21.8593 178.573 22.1055 178.13 22.4502C177.699 22.7948 177.484 23.2071 177.484 23.6871C177.484 23.7118 177.484 23.7364 177.484 23.761Z" fill="white"/>
<path d="M186.927 18.4991C187.714 17.6991 188.779 17.2991 190.121 17.2991C191.672 17.2991 192.816 17.9145 193.555 19.1453V13.9204H194.404V25.7919H193.592V24.0564C192.853 25.3119 191.709 25.9519 190.158 25.9765C190.121 25.9765 190.078 25.9765 190.028 25.9765C188.724 25.9765 187.684 25.5888 186.908 24.8134C186.133 24.0256 185.745 22.9733 185.745 21.6563C185.745 20.3639 186.139 19.3115 186.927 18.4991ZM186.631 21.6563C186.631 22.7886 186.951 23.6748 187.591 24.3149C188.231 24.9426 189.087 25.2565 190.158 25.2565C191.241 25.2565 192.084 24.9241 192.687 24.2595C193.29 23.5825 193.592 22.7148 193.592 21.6563C193.592 20.5854 193.29 19.7115 192.687 19.0346C192.084 18.3576 191.241 18.0191 190.158 18.0191C189.111 18.0191 188.262 18.333 187.61 18.9607C186.958 19.5884 186.631 20.487 186.631 21.6563Z" fill="white"/>
<path d="M195.887 21.6563C195.887 20.3762 196.263 19.33 197.014 18.5176C197.764 17.7053 198.786 17.2991 200.078 17.2991C200.841 17.2991 201.5 17.4406 202.054 17.7237C202.608 17.9945 203.02 18.3207 203.291 18.7022C203.562 19.0838 203.771 19.5084 203.919 19.9762C204.066 20.4439 204.146 20.7947 204.159 21.0285C204.183 21.2501 204.196 21.4224 204.196 21.5455C204.196 21.6686 204.189 21.7855 204.177 21.8963H196.755C196.78 22.8933 197.069 23.7056 197.623 24.3333C198.177 24.9488 198.995 25.2565 200.078 25.2565C200.558 25.2565 200.995 25.1888 201.389 25.0534C201.783 24.9057 202.085 24.7334 202.294 24.5364C202.503 24.3395 202.675 24.1426 202.811 23.9456C202.959 23.7364 203.051 23.5641 203.088 23.4287L203.162 23.2071H204.048C204.036 23.281 204.011 23.3794 203.974 23.5025C203.937 23.6256 203.826 23.8472 203.642 24.1672C203.457 24.4872 203.229 24.7703 202.959 25.0165C202.7 25.2626 202.312 25.4842 201.795 25.6811C201.291 25.878 200.718 25.9765 200.078 25.9765C198.786 25.9765 197.764 25.5888 197.014 24.8134C196.263 24.0379 195.887 22.9856 195.887 21.6563ZM203.328 21.1762C203.328 21.1393 203.328 21.1085 203.328 21.0839C203.328 20.6162 203.235 20.1608 203.051 19.7177C202.879 19.2746 202.534 18.8807 202.017 18.5361C201.5 18.1914 200.854 18.0191 200.078 18.0191C199.032 18.0191 198.226 18.3391 197.66 18.9792C197.106 19.6069 196.804 20.3393 196.755 21.1762H203.328Z" fill="white"/>
<defs>
<radialGradient id="paint0_radial_6017_5594" cx="0" cy="0" r="1" gradientTransform="matrix(-12.7346 11.6662 -15.1067 -16.109 19.2654 15.6662)" gradientUnits="userSpaceOnUse">
<stop offset="0.125" stop-color="white"/>
<stop offset="1" stop-color="#886EFE"/>
</radialGradient>
</defs>
</svg>
