<svg width="2194" height="259" viewBox="0 0 2194 259" fill="none" xmlns="http://www.w3.org/2000/svg">
<path fill-rule="evenodd" clip-rule="evenodd" d="M329.202 159.782C334.395 164.976 330.717 173.855 323.373 173.855H258.162C255.975 173.855 253.879 174.724 252.333 176.27L172.078 256.524C168.859 259.743 163.639 259.743 160.42 256.524L80.1655 176.27C78.6195 174.724 76.5226 173.855 74.3363 173.855H8.7603C1.41588 173.855 -2.26222 164.975 2.93107 159.782L160.237 2.47595C163.457 -0.743448 168.676 -0.743446 171.896 2.47595L329.202 159.782ZM127.565 123.701C124.345 126.921 124.345 132.14 127.565 135.36L160.298 168.093C163.518 171.312 168.737 171.312 171.957 168.093L204.69 135.36C207.909 132.14 207.909 126.921 204.69 123.701L171.957 90.9678C168.737 87.7485 163.518 87.7484 160.298 90.9678L127.565 123.701Z" fill="#02020A"/>
<path fill-rule="evenodd" clip-rule="evenodd" d="M329.202 159.782C334.395 164.976 330.717 173.855 323.373 173.855H258.162C255.975 173.855 253.879 174.724 252.333 176.27L172.078 256.524C168.859 259.743 163.639 259.743 160.42 256.524L80.1655 176.27C78.6195 174.724 76.5226 173.855 74.3363 173.855H8.7603C1.41588 173.855 -2.26222 164.975 2.93107 159.782L160.237 2.47595C163.457 -0.743448 168.676 -0.743446 171.896 2.47595L329.202 159.782ZM127.565 123.701C124.345 126.921 124.345 132.14 127.565 135.36L160.298 168.093C163.518 171.312 168.737 171.312 171.957 168.093L204.69 135.36C207.909 132.14 207.909 126.921 204.69 123.701L171.957 90.9678C168.737 87.7485 163.518 87.7484 160.298 90.9678L127.565 123.701Z" fill="url(#paint0_linear_133_81)"/>
<path d="M443.972 0.0614014H471.552V169.303C471.552 172.437 472.074 174.631 473.119 175.885C474.164 176.929 476.253 177.452 479.387 177.452H490.356V201.584H479.387C466.433 201.584 457.239 199.286 451.807 194.689C446.583 190.093 443.972 181.631 443.972 169.303V0.0614014Z" fill="#02020A"/>
<path d="M502.269 149.245C504.776 144.439 507.91 140.365 511.671 137.022C515.641 133.679 520.655 130.649 526.715 127.933C532.774 125.217 538.415 123.127 543.639 121.665C548.862 119.993 554.921 118.531 561.817 117.277C568.92 115.814 574.457 114.874 578.427 114.456C582.606 114.038 587.516 113.516 593.158 112.889C599.008 112.262 602.246 111.949 602.873 111.949C602.873 90.2192 592.113 79.3543 570.592 79.3543C564.115 79.3543 558.473 80.0856 553.668 81.5482C548.862 83.0107 545.31 84.7867 543.012 86.8761C540.922 88.9655 539.251 91.0549 537.997 93.1443C536.744 95.2337 536.012 97.0098 535.803 98.4723V100.666H505.403C505.403 99.4126 505.507 97.8455 505.716 95.965C506.134 94.0846 507.492 90.6371 509.79 85.6225C512.089 80.6079 515.327 76.2202 519.506 72.4592C523.685 68.6983 530.267 65.2508 539.251 62.1167C548.235 58.9826 558.787 57.4155 570.905 57.4155C591.173 57.4155 606.112 62.2212 615.723 71.8324C625.543 81.4437 630.453 94.398 630.453 110.695V169.303C630.453 172.437 630.976 174.631 632.021 175.885C633.065 176.929 635.155 177.452 638.289 177.452H648.318V201.584H637.662C627.006 201.584 619.066 200.122 613.843 197.197C608.619 194.063 605.276 188.63 603.814 180.899C591.695 196.779 573.413 204.719 548.967 204.719C532.669 204.719 520.133 201.062 511.357 193.749C502.582 186.436 498.194 176.929 498.194 165.229C498.194 159.587 499.552 154.259 502.269 149.245ZM534.236 178.079C538.833 181.004 544.683 182.466 551.787 182.466C563.906 182.466 575.398 179.123 586.263 172.437C597.336 165.542 602.873 157.08 602.873 147.051V133.261C571.95 135.977 551.056 140.469 540.191 146.738C531.625 151.752 527.341 157.916 527.341 165.229C527.341 170.87 529.64 175.153 534.236 178.079Z" fill="#02020A"/>
<path d="M655.707 139.529V60.5496H683.288V139.529C683.288 167.318 694.779 181.213 717.763 181.213C744.925 181.213 758.506 165.229 758.506 133.261V60.5496H786.086V201.584H759.446V178.392C755.685 185.914 750.044 192.182 742.522 197.197C735.209 202.211 726.643 204.719 716.823 204.719C676.079 204.719 655.707 182.989 655.707 139.529Z" fill="#02020A"/>
<path d="M831.597 60.5496V83.4286C835.358 75.4889 841.104 69.2207 848.835 64.624C856.565 60.0273 865.341 57.6245 875.161 57.4155C875.997 57.4155 876.833 57.4155 877.668 57.4155C898.144 57.4155 913.397 62.848 923.426 73.7129C933.455 84.3689 938.47 100.875 938.47 123.232V201.584H910.89V123.232C910.89 107.979 908.069 97.2187 902.428 90.9505C896.995 84.4733 888.115 81.1303 875.788 80.9213C875.37 80.9213 874.952 80.9213 874.534 80.9213C860.953 80.9213 850.506 84.7867 843.193 92.5175C836.089 100.039 832.537 113.203 832.537 132.007V201.584H804.957V60.5496H831.597Z" fill="#02020A"/>
<path d="M969.804 77.4738C983.176 64.1016 1001.25 57.4155 1024.02 57.4155C1035.72 57.4155 1045.96 58.9826 1054.74 62.1167C1063.72 65.2508 1070.41 69.1162 1074.8 73.7129C1079.18 78.1006 1082.74 82.5929 1085.45 87.1896C1088.17 91.5773 1089.84 95.3382 1090.47 98.4723L1091.09 103.174H1060.69C1060.48 102.547 1060.17 101.711 1059.75 100.666C1059.54 99.6215 1058.5 97.741 1056.62 95.0248C1054.95 92.0997 1052.86 89.5924 1050.35 87.503C1048.05 85.4136 1044.5 83.5331 1039.69 81.8616C1035.1 80.19 1029.87 79.3543 1024.02 79.3543C1009.61 79.3543 998.324 84.2644 990.175 94.0846C982.236 103.696 978.266 115.814 978.266 130.44C978.266 145.066 982.34 157.498 990.489 167.736C998.637 177.765 1009.82 182.78 1024.02 182.78C1033.43 182.78 1041.16 180.377 1047.22 175.571C1053.28 170.557 1057.04 165.647 1058.5 160.841L1060.69 153.319H1091.09C1090.88 154.782 1090.57 156.662 1090.15 158.961C1089.74 161.259 1088.06 165.333 1085.14 171.184C1082.42 177.034 1078.87 182.257 1074.48 186.854C1070.1 191.451 1063.41 195.63 1054.42 199.391C1045.65 202.943 1035.52 204.719 1024.02 204.719C1000.83 204.719 982.549 198.137 969.177 184.974C956.014 171.601 949.432 153.424 949.432 130.44C949.432 108.71 956.222 91.0549 969.804 77.4738Z" fill="#02020A"/>
<path d="M1103.69 0.0614014H1131.27V81.5482C1135.24 74.2352 1140.98 68.4894 1148.51 64.3106C1156.03 59.9228 1164.49 57.6245 1173.89 57.4155C1174.73 57.4155 1175.56 57.4155 1176.4 57.4155C1196.88 57.4155 1212.13 62.848 1222.16 73.7129C1232.19 84.3689 1237.2 100.875 1237.2 123.232V201.584H1209.62V123.232C1209.62 107.979 1206.8 97.2187 1201.16 90.9505C1195.73 84.4733 1186.85 81.1303 1174.52 80.9213C1174.1 80.9213 1173.68 80.9213 1173.27 80.9213C1159.68 80.9213 1149.24 84.7867 1141.92 92.5175C1134.82 100.039 1131.27 113.203 1131.27 132.007V201.584H1103.69V0.0614014Z" fill="#02020A"/>
<path d="M1254.43 60.5496H1281.07V79.3543C1294.03 64.7285 1310.22 57.4155 1329.65 57.4155C1353.26 57.4155 1371.44 64.3106 1384.18 78.1006C1396.93 91.6818 1403.3 109.651 1403.3 132.007C1403.3 154.364 1396.72 172.124 1383.56 185.287C1370.6 198.241 1353.05 204.719 1330.9 204.719C1329.65 204.719 1328.29 204.719 1326.83 204.719C1309.28 204.092 1294.34 196.988 1282.01 183.407V258.939H1254.43V60.5496ZM1281.07 131.067C1281.07 145.693 1285.15 157.916 1293.29 167.736C1301.23 177.765 1312.31 182.78 1326.52 182.78C1340.72 182.78 1352.32 177.87 1361.3 168.049C1370.29 158.229 1374.78 146.215 1374.78 132.007C1374.78 116.337 1370.39 103.696 1361.62 94.0846C1353.05 84.2644 1341.35 79.3543 1326.52 79.3543C1312.1 79.3543 1300.92 84.1599 1292.98 93.7712C1285.04 103.173 1281.07 115.605 1281.07 131.067Z" fill="#02020A"/>
<path d="M1415.3 149.245C1417.8 144.439 1420.94 140.365 1424.7 137.022C1428.67 133.679 1433.68 130.649 1439.74 127.933C1445.8 125.217 1451.44 123.127 1456.67 121.665C1461.89 119.993 1467.95 118.531 1474.85 117.277C1481.95 115.814 1487.49 114.874 1491.46 114.456C1495.63 114.038 1500.54 113.516 1506.19 112.889C1512.04 112.262 1515.28 111.949 1515.9 111.949C1515.9 90.2192 1505.14 79.3543 1483.62 79.3543C1477.14 79.3543 1471.5 80.0856 1466.7 81.5482C1461.89 83.0107 1458.34 84.7867 1456.04 86.8761C1453.95 88.9655 1452.28 91.0549 1451.03 93.1443C1449.77 95.2337 1449.04 97.0098 1448.83 98.4723V100.666H1418.43C1418.43 99.4126 1418.54 97.8455 1418.74 95.965C1419.16 94.0846 1420.52 90.6371 1422.82 85.6225C1425.12 80.6079 1428.36 76.2202 1432.53 72.4592C1436.71 68.6983 1443.3 65.2508 1452.28 62.1167C1461.26 58.9826 1471.82 57.4155 1483.93 57.4155C1504.2 57.4155 1519.14 62.2212 1528.75 71.8324C1538.57 81.4437 1543.48 94.398 1543.48 110.695V169.303C1543.48 172.437 1544 174.631 1545.05 175.885C1546.09 176.929 1548.18 177.452 1551.32 177.452H1561.35V201.584H1550.69C1540.03 201.584 1532.09 200.122 1526.87 197.197C1521.65 194.063 1518.3 188.63 1516.84 180.899C1504.72 196.779 1486.44 204.719 1462 204.719C1445.7 204.719 1433.16 201.062 1424.39 193.749C1415.61 186.436 1411.22 176.929 1411.22 165.229C1411.22 159.587 1412.58 154.259 1415.3 149.245ZM1447.27 178.079C1451.86 181.004 1457.71 182.466 1464.82 182.466C1476.93 182.466 1488.43 179.123 1499.29 172.437C1510.37 165.542 1515.9 157.08 1515.9 147.051V133.261C1484.98 135.977 1464.08 140.469 1453.22 146.738C1444.65 151.752 1440.37 157.916 1440.37 165.229C1440.37 170.87 1442.67 175.153 1447.27 178.079Z" fill="#02020A"/>
<path d="M1561.89 132.007C1561.89 109.651 1568.27 91.6818 1581.01 78.1006C1593.76 64.3106 1611.93 57.4155 1635.54 57.4155C1654.14 57.4155 1670.02 64.3106 1683.18 78.1006V0.0614014H1710.76V201.584H1684.12V182.466C1672 196.674 1656.75 204.092 1638.36 204.719C1636.9 204.719 1635.54 204.719 1634.29 204.719C1612.14 204.719 1594.49 198.241 1581.32 185.287C1568.37 172.124 1561.89 154.364 1561.89 132.007ZM1590.41 132.007C1590.41 146.215 1594.91 158.229 1603.89 168.049C1612.87 177.87 1624.47 182.78 1638.68 182.78C1652.89 182.78 1663.96 177.87 1671.9 168.049C1680.05 158.02 1684.12 145.693 1684.12 131.067C1684.12 115.605 1680.15 103.173 1672.21 93.7712C1664.27 84.1599 1653.1 79.3543 1638.68 79.3543C1623.84 79.3543 1612.04 84.2644 1603.26 94.0846C1594.7 103.696 1590.41 116.337 1590.41 132.007Z" fill="#02020A"/>
<path d="M1749.09 195.989C1749.09 193.732 1749.82 191.874 1751.28 190.413C1752.87 188.82 1754.73 188.023 1756.86 188.023C1759.11 188.023 1760.97 188.82 1762.43 190.413C1764.03 191.874 1764.82 193.732 1764.82 195.989C1764.82 198.114 1764.03 199.972 1762.43 201.565C1760.97 203.026 1759.11 203.756 1756.86 203.756C1754.73 203.756 1752.87 203.026 1751.28 201.565C1749.82 199.972 1749.09 198.114 1749.09 195.989Z" fill="#02020A"/>
<path d="M1771.57 113.144H1787.7V86.856H1796.87V113.144H1825.94V121.11H1796.87V188.222C1796.87 190.745 1797.26 192.471 1798.06 193.4C1798.86 194.33 1800.45 194.794 1802.84 194.794H1824.75V202.76H1802.84C1797.26 202.76 1793.35 201.765 1791.09 199.773C1788.83 197.649 1787.7 193.799 1787.7 188.222V121.11H1771.57V113.144Z" fill="#02020A"/>
<path d="M1847.78 113.144L1847.98 133.457C1852.76 119.915 1861.92 113.144 1875.46 113.144H1891.59V121.11H1875.66C1865.04 121.11 1857.8 125.225 1853.95 133.457C1850.24 141.555 1848.38 154.102 1848.38 171.096V202.76H1839.22V113.144H1847.78Z" fill="#02020A"/>
<path d="M1900.39 167.113C1903.58 163.13 1907.43 160.076 1911.94 157.952C1916.46 155.695 1921.97 153.77 1928.47 152.177C1935.11 150.451 1940.62 149.322 1945 148.791C1949.52 148.26 1954.43 147.795 1959.74 147.397L1967.71 146.8C1967.57 136.842 1965.38 129.673 1961.13 125.292C1956.89 120.778 1949.58 118.521 1939.23 118.521C1933.92 118.521 1929.27 119.184 1925.29 120.512C1921.44 121.84 1918.58 123.499 1916.72 125.491C1915 127.35 1913.6 129.275 1912.54 131.266C1911.61 133.258 1911.08 134.917 1910.95 136.245L1910.75 138.236H1901.19C1901.19 137.44 1901.26 136.444 1901.39 135.249C1901.52 134.054 1902.25 131.93 1903.58 128.876C1904.91 125.69 1906.77 122.902 1909.16 120.512C1911.55 118.122 1915.33 115.998 1920.51 114.139C1925.82 112.148 1932.13 111.152 1939.43 111.152C1952.17 111.152 1961.6 114.007 1967.71 119.715C1973.81 125.424 1976.87 134.718 1976.87 147.596V188.222C1976.87 190.745 1977.27 192.471 1978.06 193.4C1978.86 194.33 1980.52 194.794 1983.04 194.794H1989.41V202.76H1983.04C1977.33 202.76 1973.35 201.765 1971.09 199.773C1968.83 197.649 1967.71 193.799 1967.71 188.222V182.845C1963.99 189.617 1958.48 194.994 1951.18 198.976C1944.01 202.827 1936.11 204.752 1927.48 204.752C1917.52 204.752 1909.75 202.628 1904.18 198.379C1898.6 193.998 1895.75 188.156 1895.61 180.854C1895.61 180.721 1895.61 180.522 1895.61 180.257C1895.61 175.344 1897.21 170.963 1900.39 167.113ZM1905.37 180.854C1905.77 186.43 1908.09 190.612 1912.34 193.4C1916.59 196.056 1921.7 197.383 1927.68 197.383C1927.94 197.383 1928.21 197.383 1928.47 197.383C1938.3 197.251 1947.26 194.197 1955.36 188.222C1963.59 182.115 1967.71 174.216 1967.71 164.524V154.168C1962.4 154.301 1957.09 154.699 1951.77 155.363C1946.46 155.894 1939.76 157.023 1931.66 158.749C1923.56 160.342 1917.12 162.997 1912.34 166.714C1907.7 170.432 1905.37 174.88 1905.37 180.057C1905.37 180.323 1905.37 180.588 1905.37 180.854Z" fill="#02020A"/>
<path d="M2007.23 124.097C2015.73 115.467 2027.21 111.152 2041.68 111.152C2058.41 111.152 2070.76 117.79 2078.72 131.067V74.708H2087.88V202.76H2079.12V184.04C2071.16 197.582 2058.81 204.486 2042.08 204.752C2041.68 204.752 2041.22 204.752 2040.69 204.752C2026.61 204.752 2015.39 200.57 2007.03 192.205C1998.67 183.708 1994.48 172.357 1994.48 158.151C1994.48 144.211 1998.73 132.859 2007.23 124.097ZM2004.04 158.151C2004.04 170.366 2007.49 179.925 2014.4 186.828C2021.3 193.599 2030.53 196.985 2042.08 196.985C2053.76 196.985 2062.86 193.4 2069.36 186.231C2075.87 178.929 2079.12 169.569 2079.12 158.151C2079.12 146.601 2075.87 137.174 2069.36 129.872C2062.86 122.57 2053.76 118.919 2042.08 118.919C2030.8 118.919 2021.63 122.304 2014.6 129.075C2007.56 135.847 2004.04 145.538 2004.04 158.151Z" fill="#02020A"/>
<path d="M2103.88 158.151C2103.88 144.343 2107.93 133.058 2116.03 124.296C2124.13 115.533 2135.15 111.152 2149.09 111.152C2157.32 111.152 2164.42 112.679 2170.4 115.733C2176.37 118.653 2180.82 122.172 2183.74 126.287C2186.66 130.403 2188.92 134.984 2190.51 140.029C2192.11 145.074 2192.97 148.858 2193.1 151.38C2193.37 153.77 2193.5 155.629 2193.5 156.956C2193.5 158.284 2193.43 159.545 2193.3 160.74H2113.24C2113.51 171.494 2116.63 180.257 2122.6 187.028C2128.58 193.666 2137.41 196.985 2149.09 196.985C2154.27 196.985 2158.98 196.255 2163.23 194.794C2167.48 193.201 2170.73 191.342 2172.99 189.218C2175.24 187.094 2177.1 184.97 2178.56 182.845C2180.16 180.588 2181.15 178.73 2181.55 177.269L2182.35 174.88H2191.91C2191.77 175.676 2191.51 176.738 2191.11 178.066C2190.71 179.394 2189.52 181.783 2187.53 185.235C2185.53 188.687 2183.08 191.741 2180.16 194.396C2177.37 197.051 2173.19 199.441 2167.61 201.565C2162.17 203.69 2155.99 204.752 2149.09 204.752C2135.15 204.752 2124.13 200.57 2116.03 192.205C2107.93 183.841 2103.88 172.49 2103.88 158.151ZM2184.14 152.973C2184.14 152.575 2184.14 152.243 2184.14 151.978C2184.14 146.932 2183.14 142.02 2181.15 137.241C2179.29 132.461 2175.58 128.212 2170 124.495C2164.42 120.778 2157.45 118.919 2149.09 118.919C2137.8 118.919 2129.11 122.371 2123 129.275C2117.03 136.046 2113.77 143.945 2113.24 152.973H2184.14Z" fill="#02020A"/>
<defs>
<linearGradient id="paint0_linear_133_81" x1="331.526" y1="-8.52429" x2="68.0805" y2="248.143" gradientUnits="userSpaceOnUse">
<stop offset="0.125" stop-color="#02020A"/>
<stop offset="1" stop-color="#886EFE"/>
</linearGradient>
</defs>
</svg>
